# xmcd
#
# Track frame offsets: 
#        150
#        11707
#        22930
#        33667
#        50047
#        62120
#        74823
#        87920
#        102852
#        114924
#        123504
#        135782
#        146546
#        158836
#        172840
#        190895
#        199422
#        212222
#        226106
#        242990
#
# Disc length: 3392 seconds
#
# Revision: 2
# Processed by: cddbd v1.5.2PL0 Copyright (c) Steve Scherf et al.
# Submitted via: ExactAudioCopy v0.99pb4
#
DISCID=1b0d3e14
DTITLE=Various Artist - 100 Vlaamse Klassiekers Volume 2 - CD 4
DYEAR=2008
DGENRE=Chanson
TTITLE0=Will Tura - Eenzaam Zonder Jou
TTITLE1=Bobbejaan Schoepen - In De Schaduw Van De Mijn
TTITLE2=Marc Dex - Niet Huilen Mama
TTITLE3=Paul Roeland - Neem Eens Een Kind Bij De Hand
TTITLE4=Willy Sommers - Bruiloftsklokken
TTITLE5=Johnny White - Ik Denk Aan Jou
TTITLE6=Ray Franky - Zing, Signorita, Zing Voor Mij
TTITLE7=Renaat Verbruggen - Marleentje
TTITLE8=Bob Davidse - Annemarie
TTITLE9=John Larry - Dans Wat Dichter Bij Mij
TTITLE10=Ray Franky - Romantica
TTITLE11=Jan Theys - De Chou Chou Van Mijn Hart
TTITLE12=Eddy Wally - Een Viool In De Nacht
TTITLE13=Salim Seghers - In De Stilte Van De Nacht
TTITLE14=Paul Severs - Rocky
TTITLE15=Anneke Soetaert - Rio De Janeiro
TTITLE16=Laura Lynn - Dans Je De Hele Nacht Met Mij
TTITLE17=Christoff - Als Ik In Je Blauwe Ogen Kijk
TTITLE18=K 3 - Oya Lele
TTITLE19=Sylvie Melody - Ben
EXTD=YEAR: 2008
EXTT0=
EXTT1=
EXTT2=
EXTT3=
EXTT4=
EXTT5=
EXTT6=
EXTT7=
EXTT8=
EXTT9=
EXTT10=
EXTT11=
EXTT12=
EXTT13=
EXTT14=
EXTT15=
EXTT16=
EXTT17=
EXTT18=
EXTT19=
PLAYORDER=
